<svg version="1.2" xmlns="http://www.w3.org/2000/svg" viewBox="0 0 150 150" width="150" height="150">
	<title>logo-transparent</title>
	<style>
		.s0 { fill: #aaaaaa } 
	</style>
	<g style="opacity: .54">
		<path class="s0" d="m79.4 58.9c2.2 1.9 3.1 3.5 4.3 6.2 1.2-4.5 3-9 7.7-15.9 3.5-5.4 12.9-16.3 12.9-16.3 0 0-2.9 48-25.2 82.8-0.4 0.6-1 1.2-1.3 1.4 0.3-1.1 2.2-8 2.2-8 5.5-26.2-5.4-44.2-19.6-55.8 0 0 3.5 0.2 5.8 0.4 4.9 0.3 9.9 2.3 13.2 5.2z"/>
		<path class="s0" d="m70.5 93.6c-0.8-0.8-1.6-1.8-2.7-2.8-6.6-6.2-9.1-7.3-12.7-13.2-1.2-2-1.7-3.4-1.7-3.4 0 0-1.4 5.6 3.1 12.1 3.6 5.2 5.3 6.4 8.1 9.5 3.2 3.5 5.2 6.4 6.3 7.9 1.1 1.6 1.4 2.3 1.4 2.3 0 0 3 6.7 1.7 11.1 0 0 0.4 0 1-1 1.8-3.7 6.2-18 1-34.1-2.1-6.6-4.1-10.3-8.6-16.3-9.7-12.8-13.2-15.9-18.5-27-0.6-1.2-2.1-5.5-2.1-5.5 0 0-3.5 8.4 2.2 21.1 4.7 10.3 7.3 13 11.2 19.2 4.6 7.1 7.3 12.9 8.7 15.8 1.4 3 1.6 4.4 1.6 4.4z"/>
	</g>
</svg>